<svg xmlns="http://www.w3.org/2000/svg" fill="none" viewBox="0 0 89 107">
  <path d=" M12.9058 31.3385C6.72333 37.524 2.50929 45.4105.797193 53.9998-.914901 62.589-.0480555 71.4948 3.28799 79.5896
    6.62403 87.6844 12.2793 94.6042 19.5378 99.473c7.2584 4.869 15.7938 7.468 24.5255 7.468 8.7316 0 17.267-2.599
    24.5255-7.468 7.2585-4.8688 12.9137-11.7886 16.2497-19.8834 3.3361-8.0948 4.2029-17.0006
    2.4908-25.5898-1.7121-8.5893-5.9261-16.4758-12.1086-22.6613L44.0647 0 12.9058 31.3385ZM27.2939
    79.549c-4.4431-4.4827-6.9371-10.5473-6.9371-16.8688s2.494-12.386 6.9371-16.8688l16.7708-16.8722L60.8326
    45.811C65.2759 50.2937 67.77 56.3584 67.77 62.68s-2.4941 12.3863-6.9374 16.869c-2.1993 2.2141-4.8128 3.9708-7.6904
    5.1695-2.8777 1.1987-5.9629 1.8157-9.0788 1.8157-3.1158
    0-6.201-.617-9.0787-1.8157-2.8776-1.1987-5.4911-2.9554-7.6904-5.1695" />
  <style>
    path {
      fill: #26874B
    }

    @media (prefers-color-scheme: dark) {
      path {
        fill: #FFF
      }
    }
  </style>
</svg>
